:SAMPLES-PER-SECOND 30
:FULLY-SPECIFIED
:DEGREES
359
root  -9.76673 34.8648 -16.9208 -171.74 2.08133 179.823
RightUpLeg  -5.95661 -12.0911 3.81637
RightLeg  0.83128 -1.46098 0.0731018
RightFoot  4.16746 0.01249 0.0545152
RightToes  -17.6495 -0.068747 -0.156703
Spine  -2.72163 1.00072 -1.23725
Spine1  -5.45543 1.97102 -1.71107
HEad  -65.3963 -2.91406 10.6036
LeftShoulder1  -1.94126e-019 -3.10601e-018 -2.51263e-017
LeftArm  -11.1034 24.916 -80.0538
LeftForeArm  32.8091 -14.6659 -2.52218
LeftHand  -0.382578 -0.840124 7.254
RightShoulder  -4.96962e-017 0 -2.36833e-017
RightArm  -73.8998 20.8838 20.1578
RightForeArm  166.3 40.8476 170.89
RightHand  -0.190886 -2.10707 -6.4582
LeftUpLeg  -5.13136 -3.2406 -2.85609
LeftLeg  0.203291 13.8862 -0.835822
LeftFoot  5.40603 -0.0502816 1.50123
LeftToes  -11.3243 1.48347e-006 1.01831e-007
360
root  -9.7681 34.8603 -16.8769 -171.846 2.13182 179.807
RightUpLeg  -6.06785 -12.0612 3.78881
RightLeg  1.11885 -1.45506 0.0655629
RightFoot  4.08621 0.0121142 0.0585128
RightToes  -17.7356 -0.0710884 -0.157786
Spine  -2.67825 0.933823 -1.20658
Spine1  -5.35642 1.82086 -1.61982
HEad  -65.4848 -2.53341 10.3439
LeftShoulder1  -1.94126e-019 -3.10601e-018 -2.51263e-017
LeftArm  -11.3404 25.0595 -80.2077
LeftForeArm  32.8138 -14.7268 -2.53179
LeftHand  -0.387305 -0.580464 7.63902
RightShoulder  -4.96962e-017 0 -2.36833e-017
RightArm  -69.7753 20.6991 23.5528
RightForeArm  166.882 41.0574 170.858
RightHand  -0.191457 -2.17787 -6.6117
LeftUpLeg  -5.36052 -3.35881 -2.87667
LeftLeg  0.755529 14.0566 -0.711423
LeftFoot  5.15772 -0.0491175 1.45853
LeftToes  -11.3583 1.48347e-006 1.01831e-007
361
root  -9.77242 34.8558 -16.8259 -171.953 2.11247 179.776
RightUpLeg  -6.20926 -12.153 3.73969
RightLeg  1.45892 -1.37256 0.0537859
RightFoot  3.97647 0.0113821 0.0676484
RightToes  -17.8155 -0.0744766 -0.159031
Spine  -2.6434 0.769897 -1.17881
Spine1  -5.26293 1.45559 -1.51461
HEad  -65.6888 -2.04306 9.90082
LeftShoulder1  -1.94126e-019 -3.10601e-018 -2.51263e-017
LeftArm  -11.5101 25.2307 -80.2371
LeftForeArm  32.9966 -14.6936 -2.52387
LeftHand  -0.38312 -0.823822 7.28181
RightShoulder  -4.96962e-017 0 -2.36833e-017
RightArm  -63.7249 20.0049 28.3742
RightForeArm  167.325 41.6169 170.708
RightHand  -0.19735 -2.32816 -7.14259
LeftUpLeg  -5.75083 -3.61937 -2.91547
LeftLeg  1.62864 14.323 -0.508357
LeftFoot  4.7782 -0.0464442 1.38969
LeftToes  -11.3379 1.48347e-006 1.01831e-007
362
root  -9.78322 34.8512 -16.7426 -171.844 2.03432 179.701
RightUpLeg  -6.68241 -12.7823 3.70222
RightLeg  1.9 -0.754611 0.0240282
RightFoot  3.90932 0.00853492 0.107059
RightToes  -18.1612 -0.0782781 -0.161876
Spine  -2.69106 0.535234 -1.12225
Spine1  -5.32169 0.92227 -1.33608
HEad  -65.7641 -1.57747 9.23382
LeftShoulder1  -1.94126e-019 -3.10601e-018 -2.51263e-017
LeftArm  -11.8758 25.3353 -80.5187
LeftForeArm  33.1636 -14.1999 -2.43995
LeftHand  -0.395208 -0.720738 7.62621
RightShoulder  -4.96962e-017 0 -2.36833e-017
RightArm  -55.885 18.255 34.3194
RightForeArm  168.513 42.785 170.411
RightHand  -0.208263 -2.33524 -7.58029
LeftUpLeg  -6.85755 -3.7331 -2.99179
LeftLeg  3.42434 14.407 -0.0645295
LeftFoot  3.91548 -0.034729 1.17753
LeftToes  -11.2262 1.48347e-006 1.01831e-007
363
root  -9.81896 34.8487 -16.6123 -171.497 1.74933 179.638
RightUpLeg  -7.44505 -14.1589 3.72022
RightLeg  2.27797 0.499422 -0.0116823
RightFoot  3.99583 0.00318509 0.182283
RightToes  -19.3118 -0.0818592 -0.171266
Spine  -2.81061 0.264804 -1.03154
Spine1  -5.52076 0.30391 -1.08979
HEad  -65.8345 -1.24599 8.62311
LeftShoulder1  -1.94126e-019 -3.10601e-018 -2.51263e-017
LeftArm  -12.2971 25.3574 -80.8451
LeftForeArm  33.4441 -13.7491 -2.36371
LeftHand  -0.392441 -0.733993 7.5582
RightShoulder  -4.96962e-017 0 -2.36833e-017
RightArm  -47.0129 14.5875 41.0952
RightForeArm  170.597 45.0463 169.796
RightHand  -0.229657 -2.18819 -8.03908
LeftUpLeg  -8.8887 -3.70149 -3.02189
LeftLeg  6.51183 14.1884 0.693307
LeftFoot  2.3232 -0.0121486 0.760711
LeftToes  -12.6299 1.48347e-006 1.01831e-007
364
root  -9.86506 34.8497 -16.491 -171.492 1.51207 179.74
RightUpLeg  -7.69502 -14.9243 3.79361
RightLeg  2.37895 1.12375 -0.0249943
RightFoot  4.29224 0.000256814 0.222965
RightToes  -20.5572 -0.0845868 -0.181287
Spine  -2.76194 0.193832 -0.886854
Spine1  -5.40253 0.113742 -0.768347
HEad  -66.1897 -1.19953 7.80792
LeftShoulder1  -1.94126e-019 -3.10601e-018 -2.51263e-017
LeftArm  -12.5024 25.0256 -81.1945
LeftForeArm  33.7991 -13.721 -2.3667
LeftHand  -0.396262 -0.793998 7.45825
RightShoulder  -4.96962e-017 0 -2.36833e-017
RightArm  -38.6603 8.95246 48.093
RightForeArm  172.281 49.2456 168.377
RightHand  -0.254851 -2.13127 -8.81624
LeftUpLeg  -10.9256 -2.22938 -2.90612
LeftLeg  10.3966 12.557 1.46484
LeftFoot  0.219812 -0.000112073 0.22012
LeftToes  -15.8541 1.48347e-006 1.01831e-007
365
root  -9.89212 34.8288 -16.3743 -171.48 1.38477 -179.861
RightUpLeg  -7.74607 -14.5783 4.17995
RightLeg  2.12037 0.72061 -0.0191269
RightFoot  4.5586 0.0020103 0.19682
RightToes  -20.7358 -0.0855983 -0.182712
Spine  -2.65807 0.368604 -0.633399
Spine1  -5.20326 0.474096 -0.276455
HEad  -66.9625 -1.31883 6.77825
LeftShoulder1  -1.94126e-019 -3.10601e-018 -2.51263e-017
LeftArm  -12.71 24.4941 -81.6219
LeftForeArm  34.4452 -14.1889 -2.45823
LeftHand  -0.397978 -0.957323 7.41228
RightShoulder  -4.96962e-017 0 -2.36833e-017
RightArm  -32.4128 2.12807 54.4024
RightForeArm  171.478 55.6699 165.419
RightHand  -0.26775 -2.25352 -9.62936
LeftUpLeg  -13.228 1.00573 -2.41541
LeftLeg  14.8664 10.6256 2.0859
LeftFoot  -2.14139 -0.00752306 -0.241002
LeftToes  -20.853 1.48347e-006 1.01831e-007
